<svg width="740" height="850" viewBox="0 0 740 850" fill="none" xmlns="http://www.w3.org/2000/svg">
<path d="M309.08 30.5V621.44H345.62C357.17 621.44 366.64 633.391 367.967 648.883L238.007 664.594V655.776C238.007 638.506 248.046 621.44 260.511 621.44H296.894V67.02C300.831 54.734 304.887 42.591 309.074 30.499L309.08 30.5ZM289.843 80.313V132.805C244.285 127.213 202.907 109.506 165.503 80.313H289.843ZM316.137 179.47C341.857 208.658 404.687 238.568 425.657 269.211C402.802 279.127 339.992 287.644 316.137 294.677V179.467V179.47ZM431.217 277.483C452.31 309.09 470.877 341.474 486.89 374.637C444.868 395.499 361.65 411.365 316.13 422.109V305.369C341.92 297.765 406.588 288.458 431.21 277.484L431.217 277.483ZM289.837 320.975V384.392C277.49 380.89 253.996 377.011 241.916 372.739C253.064 355.127 276.537 337.851 289.837 320.975ZM236.479 381.479C250.331 386.526 275.633 391.081 289.837 395.109V511.509C258.797 504.515 217.308 495.155 187.887 483.468C200.352 448.192 216.563 414.202 236.476 381.478L236.479 381.479ZM491.019 383.3C504.63 412.413 516.284 442.125 525.965 472.443C472.171 503.977 375.945 526.919 316.135 541.036V432.796C363.155 421.716 447.745 405.196 491.025 383.306L491.019 383.3ZM528.788 481.469C540.14 518.668 548.552 556.771 553.958 595.789H316.128V551.725C377.008 537.365 474.168 513.865 528.798 481.475L528.788 481.469ZM184.648 492.862C215.088 505.157 257.653 514.926 289.838 522.177V595.791H161.468C165.868 560.361 173.638 526.061 184.658 492.881L184.648 492.862ZM700.418 630.682C700.418 630.682 624.483 653.872 616.987 671.911L84.887 706.091C81.9386 691.324 78.81 676.426 72.838 662.417C69.5268 655.797 60.423 645.145 60.423 645.145C60.423 645.145 76.8149 651.951 82.2479 658.515C87.3168 664.639 93.4919 679.8 95.2639 686.894L700.414 630.684L700.418 630.682ZM610.009 688.038C599.878 710.354 586.765 734.877 573.208 748.203C555.991 765.126 508.257 780.51 508.257 780.51H152.217C152.217 780.51 106.221 747.646 91.787 724.246C90.059 721.444 88.4986 717.675 87.1345 713.607L610.005 688.037L610.009 688.038Z" fill="#030404"/>
</svg>
