<svg width="1665" height="1390" viewBox="0 0 1665 1390" fill="none" xmlns="http://www.w3.org/2000/svg">
<path d="M1345 875.5C1345 739.046 1290.79 608.181 1194.31 511.694C1097.82 415.206 966.954 361 830.5 361C694.046 361 563.181 415.206 466.694 511.694C370.206 608.181 316 739.046 316 875.5L830.5 875.5H1345Z" fill="#F5C120"/>
<path d="M59 886H1602" stroke="#F5C120" stroke-width="21" stroke-linecap="round"/>
<path d="M1386.6 747.819L1650.53 701.281" stroke="#F5C120" stroke-width="27" stroke-linecap="round"/>
<path d="M1321 565L1553.09 431" stroke="#F5C120" stroke-width="27" stroke-linecap="round"/>
<path d="M1196 413.3L1368.27 208" stroke="#F5C120" stroke-width="27" stroke-linecap="round"/>
<path d="M1025 315.838L1116.66 64" stroke="#F5C120" stroke-width="27" stroke-linecap="round"/>
<path d="M833 282V14" stroke="#F5C120" stroke-width="27" stroke-linecap="round"/>
<path d="M277.928 747.819L13.9992 701.281" stroke="#F5C120" stroke-width="27" stroke-linecap="round"/>
<path d="M343.529 565L111.435 431" stroke="#F5C120" stroke-width="27" stroke-linecap="round"/>
<path d="M468.529 413.3L296.262 208" stroke="#F5C120" stroke-width="27" stroke-linecap="round"/>
<path d="M639.529 315.838L547.868 64" stroke="#F5C120" stroke-width="27" stroke-linecap="round"/>
<path d="M121 974.5H1543" stroke="#F5C120" stroke-width="21" stroke-linecap="round"/>
<path d="M218 1047L1444 1047" stroke="#F5C120" stroke-width="21" stroke-linecap="round"/>
</svg>
